<svg width="56" height="48" viewBox="0 0 56 48" fill="none" xmlns="http://www.w3.org/2000/svg">
<rect width="56" height="48" rx="24" fill="white"/>
<g clip-path="url(#clip0_26_1386)">
<path d="M24.3335 18.5C24.3335 16.475 25.9751 14.8333 28.0002 14.8333C30.0252 14.8333 31.6668 16.475 31.6668 18.5V22.1667C31.6668 24.1917 30.0252 25.8333 28.0002 25.8333C25.9751 25.8333 24.3335 24.1917 24.3335 22.1667V18.5Z" fill="#72777A"/>
<path d="M36.3335 23.0833C36.3335 22.531 35.8858 22.0833 35.3335 22.0833C34.7812 22.0833 34.3335 22.531 34.3335 23.0833H36.3335ZM21.2085 23.0833C21.2085 22.531 20.7608 22.0833 20.2085 22.0833C19.6562 22.0833 19.2085 22.531 19.2085 23.0833H21.2085ZM25.9243 33.1132C25.3885 33.2471 25.0627 33.7901 25.1967 34.3259C25.3306 34.8617 25.8736 35.1874 26.4094 35.0535L25.9243 33.1132ZM26.8885 33.9029L26.646 32.9328L26.8885 33.9029ZM29.1118 33.9029L29.3543 32.9328H29.3543L29.1118 33.9029ZM29.591 35.0535C30.1268 35.1874 30.6697 34.8617 30.8036 34.3259C30.9376 33.7901 30.6118 33.2471 30.076 33.1132L29.591 35.0535ZM31.6668 18.5H30.6668V22.1667H31.6668H32.6668V18.5H31.6668ZM24.3335 22.1667H25.3335V18.5H24.3335H23.3335V22.1667H24.3335ZM28.0002 25.8333V24.8333C26.5274 24.8333 25.3335 23.6394 25.3335 22.1667H24.3335H23.3335C23.3335 24.744 25.4228 26.8333 28.0002 26.8333V25.8333ZM31.6668 22.1667H30.6668C30.6668 23.6394 29.4729 24.8333 28.0002 24.8333V25.8333V26.8333C30.5775 26.8333 32.6668 24.744 32.6668 22.1667H31.6668ZM28.0002 14.8333V15.8333C29.4729 15.8333 30.6668 17.0272 30.6668 18.5H31.6668H32.6668C32.6668 15.9227 30.5775 13.8333 28.0002 13.8333V14.8333ZM28.0002 14.8333V13.8333C25.4228 13.8333 23.3335 15.9227 23.3335 18.5H24.3335H25.3335C25.3335 17.0272 26.5274 15.8333 28.0002 15.8333V14.8333ZM35.3335 23.0833H34.3335C34.3335 26.5811 31.498 29.4167 28.0002 29.4167V30.4167V31.4167C32.6025 31.4167 36.3335 27.6857 36.3335 23.0833H35.3335ZM28.0002 30.4167V29.4167C24.4228 29.4167 21.2085 26.5048 21.2085 23.0833H20.2085H19.2085C19.2085 27.7621 23.4774 31.4167 28.0002 31.4167V30.4167ZM28.0002 30.4167H27.0002V33.1667H28.0002H29.0002V30.4167H28.0002ZM26.1668 34.0833L26.4094 35.0535L27.1311 34.873L26.8885 33.9029L26.646 32.9328L25.9243 33.1132L26.1668 34.0833ZM29.1118 33.9029L28.8692 34.873L29.591 35.0535L29.8335 34.0833L30.076 33.1132L29.3543 32.9328L29.1118 33.9029ZM26.8885 33.9029L27.1311 34.873C27.4164 34.8017 27.7083 34.7661 28.0002 34.7661V33.7661V32.7661C27.5454 32.7661 27.0905 32.8216 26.646 32.9328L26.8885 33.9029ZM28.0002 33.7661V34.7661C28.2921 34.7661 28.5839 34.8017 28.8692 34.873L29.1118 33.9029L29.3543 32.9328C28.9098 32.8216 28.455 32.7661 28.0002 32.7661V33.7661ZM28.0002 33.1667H27.0002V33.7661H28.0002H29.0002V33.1667H28.0002Z" fill="#72777A"/>
</g>
<defs>
<clipPath id="clip0_26_1386">
<rect width="22" height="22" fill="white" transform="translate(17 13)"/>
</clipPath>
</defs>
</svg>
