<svg width="30" height="31" viewBox="0 0 30 31" fill="none" xmlns="http://www.w3.org/2000/svg">
<g clip-path="url(#clip0_31_4055)">
<circle cx="15" cy="15.5" r="11.25" fill="white"/>
<path d="M19.375 14.25C20.4105 14.25 21.25 13.4105 21.25 12.375C21.25 11.3395 20.4105 10.5 19.375 10.5C18.3395 10.5 17.5 11.3395 17.5 12.375C17.5 13.4105 18.3395 14.25 19.375 14.25Z" fill="#E8625B"/>
<path d="M10.625 14.25C11.6605 14.25 12.5 13.4105 12.5 12.375C12.5 11.3395 11.6605 10.5 10.625 10.5C9.58947 10.5 8.75 11.3395 8.75 12.375C8.75 13.4105 9.58947 14.25 10.625 14.25Z" fill="#E8625B"/>
<path d="M14.9875 3C8.0875 3 2.5 8.6 2.5 15.5C2.5 22.4 8.0875 28 14.9875 28C21.9 28 27.5 22.4 27.5 15.5C27.5 8.6 21.9 3 14.9875 3ZM15 25.5C9.475 25.5 5 21.025 5 15.5C5 9.975 9.475 5.5 15 5.5C20.525 5.5 25 9.975 25 15.5C25 21.025 20.525 25.5 15 25.5ZM15 18C12.625 18 10.4625 19.2125 9.1875 21.225C8.9125 21.6625 9.05 22.2375 9.4875 22.5125C9.925 22.7875 10.5 22.65 10.775 22.2125C11.7 20.7375 13.275 19.8625 15 19.8625C16.725 19.8625 18.3 20.7375 19.225 22.2125C19.4 22.5 19.7125 22.65 20.025 22.65C20.2 22.65 20.3625 22.6 20.525 22.5125C20.9625 22.2375 21.1 21.6625 20.825 21.225C19.5375 19.2 17.375 18 15 18Z" fill="#E8625B"/>
</g>
<defs>
<clipPath id="clip0_31_4055">
<rect width="30" height="30" fill="white" transform="translate(0 0.5)"/>
</clipPath>
</defs>
</svg>
