<svg width="254" height="81" viewBox="0 0 254 81" fill="none" xmlns="http://www.w3.org/2000/svg">
<g filter="url(#filter0_d_31_4045)">
<rect x="15" y="11" width="224" height="51" rx="16" fill="url(#paint0_linear_31_4045)" shape-rendering="crispEdges"/>
<rect x="15.5" y="11.5" width="223" height="50" rx="15.5" stroke="white" shape-rendering="crispEdges"/>
<g clip-path="url(#clip0_31_4045)">
<circle cx="97" cy="36.5" r="11.25" fill="white"/>
<path d="M101.375 35.25C102.411 35.25 103.25 34.4105 103.25 33.375C103.25 32.3395 102.411 31.5 101.375 31.5C100.339 31.5 99.5 32.3395 99.5 33.375C99.5 34.4105 100.339 35.25 101.375 35.25Z" fill="#E8625B"/>
<path d="M92.625 35.25C93.6605 35.25 94.5 34.4105 94.5 33.375C94.5 32.3395 93.6605 31.5 92.625 31.5C91.5895 31.5 90.75 32.3395 90.75 33.375C90.75 34.4105 91.5895 35.25 92.625 35.25Z" fill="#E8625B"/>
<path d="M96.9875 24C90.0875 24 84.5 29.6 84.5 36.5C84.5 43.4 90.0875 49 96.9875 49C103.9 49 109.5 43.4 109.5 36.5C109.5 29.6 103.9 24 96.9875 24ZM97 46.5C91.475 46.5 87 42.025 87 36.5C87 30.975 91.475 26.5 97 26.5C102.525 26.5 107 30.975 107 36.5C107 42.025 102.525 46.5 97 46.5ZM97 39C94.625 39 92.4625 40.2125 91.1875 42.225C90.9125 42.6625 91.05 43.2375 91.4875 43.5125C91.925 43.7875 92.5 43.65 92.775 43.2125C93.7 41.7375 95.275 40.8625 97 40.8625C98.725 40.8625 100.3 41.7375 101.225 43.2125C101.4 43.5 101.713 43.65 102.025 43.65C102.2 43.65 102.362 43.6 102.525 43.5125C102.962 43.2375 103.1 42.6625 102.825 42.225C101.538 40.2 99.375 39 97 39Z" fill="#E8625B"/>
</g>
<path d="M128.16 31.56C128.117 31.752 128.08 31.9707 128.048 32.216C128.027 32.4613 128.005 32.7013 127.984 32.936C127.973 33.1707 127.968 33.3627 127.968 33.512C127.957 33.864 127.952 34.2267 127.952 34.6C127.963 34.9733 127.973 35.3573 127.984 35.752C128.005 36.136 128.032 36.52 128.064 36.904C128.139 37.672 128.245 38.3493 128.384 38.936C128.523 39.5227 128.704 39.9813 128.928 40.312C129.152 40.632 129.435 40.792 129.776 40.792C129.957 40.792 130.133 40.6907 130.304 40.488C130.485 40.2853 130.645 40.024 130.784 39.704C130.933 39.3733 131.061 39.0267 131.168 38.664C131.285 38.3013 131.387 37.96 131.472 37.64L133.072 39.592C132.72 40.52 132.368 41.2613 132.016 41.816C131.675 42.36 131.317 42.7547 130.944 43C130.571 43.2347 130.165 43.352 129.728 43.352C129.152 43.352 128.603 43.16 128.08 42.776C127.568 42.392 127.131 41.7733 126.768 40.92C126.405 40.056 126.149 38.9093 126 37.48C125.947 36.9893 125.904 36.472 125.872 35.928C125.851 35.384 125.835 34.8667 125.824 34.376C125.824 33.8853 125.824 33.48 125.824 33.16C125.824 32.936 125.813 32.6693 125.792 32.36C125.771 32.0507 125.739 31.7733 125.696 31.528L128.16 31.56ZM136.16 31.928C136.459 32.2907 136.747 32.7333 137.024 33.256C137.301 33.7787 137.557 34.3387 137.792 34.936C138.027 35.5333 138.235 36.1467 138.416 36.776C138.597 37.3947 138.741 38.0027 138.848 38.6C138.965 39.1867 139.04 39.7253 139.072 40.216L136.96 41.032C136.907 40.3813 136.811 39.672 136.672 38.904C136.533 38.136 136.347 37.3627 136.112 36.584C135.877 35.8053 135.595 35.0693 135.264 34.376C134.944 33.6827 134.565 33.0853 134.128 32.584L136.16 31.928ZM144.16 31.56C144.117 31.752 144.08 31.9707 144.048 32.216C144.027 32.4613 144.005 32.7013 143.984 32.936C143.973 33.1707 143.968 33.3627 143.968 33.512C143.957 33.864 143.952 34.2267 143.952 34.6C143.963 34.9733 143.973 35.3573 143.984 35.752C144.005 36.136 144.032 36.52 144.064 36.904C144.139 37.672 144.245 38.3493 144.384 38.936C144.523 39.5227 144.704 39.9813 144.928 40.312C145.152 40.632 145.435 40.792 145.776 40.792C145.957 40.792 146.133 40.6907 146.304 40.488C146.485 40.2853 146.645 40.024 146.784 39.704C146.933 39.3733 147.061 39.0267 147.168 38.664C147.285 38.3013 147.387 37.96 147.472 37.64L149.072 39.592C148.72 40.52 148.368 41.2613 148.016 41.816C147.675 42.36 147.317 42.7547 146.944 43C146.571 43.2347 146.165 43.352 145.728 43.352C145.152 43.352 144.603 43.16 144.08 42.776C143.568 42.392 143.131 41.7733 142.768 40.92C142.405 40.056 142.149 38.9093 142 37.48C141.947 36.9893 141.904 36.472 141.872 35.928C141.851 35.384 141.835 34.8667 141.824 34.376C141.824 33.8853 141.824 33.48 141.824 33.16C141.824 32.936 141.813 32.6693 141.792 32.36C141.771 32.0507 141.739 31.7733 141.696 31.528L144.16 31.56ZM152.16 31.928C152.459 32.2907 152.747 32.7333 153.024 33.256C153.301 33.7787 153.557 34.3387 153.792 34.936C154.027 35.5333 154.235 36.1467 154.416 36.776C154.597 37.3947 154.741 38.0027 154.848 38.6C154.965 39.1867 155.04 39.7253 155.072 40.216L152.96 41.032C152.907 40.3813 152.811 39.672 152.672 38.904C152.533 38.136 152.347 37.3627 152.112 36.584C151.877 35.8053 151.595 35.0693 151.264 34.376C150.944 33.6827 150.565 33.0853 150.128 32.584L152.16 31.928ZM160.992 30.024C161.44 30.1093 161.952 30.1947 162.528 30.28C163.104 30.3547 163.696 30.4293 164.304 30.504C164.923 30.5787 165.509 30.6427 166.064 30.696C166.629 30.7387 167.115 30.776 167.52 30.808L167.264 32.68C166.848 32.648 166.357 32.6053 165.792 32.552C165.237 32.488 164.656 32.4187 164.048 32.344C163.451 32.2693 162.859 32.1947 162.272 32.12C161.685 32.0453 161.157 31.9653 160.688 31.88L160.992 30.024ZM168.08 35.112C167.867 35.2613 167.675 35.4053 167.504 35.544C167.333 35.672 167.179 35.8 167.04 35.928C166.848 36.0773 166.624 36.2693 166.368 36.504C166.123 36.7387 165.867 36.9787 165.6 37.224C165.333 37.4587 165.093 37.6773 164.88 37.88C164.677 38.0827 164.528 38.2373 164.432 38.344C164.496 38.3333 164.592 38.3387 164.72 38.36C164.848 38.3813 164.955 38.4133 165.04 38.456C165.275 38.5307 165.467 38.6587 165.616 38.84C165.765 39.0107 165.893 39.2453 166 39.544C166.053 39.6827 166.101 39.8427 166.144 40.024C166.197 40.1947 166.251 40.3653 166.304 40.536C166.357 40.7067 166.411 40.8613 166.464 41C166.539 41.2453 166.667 41.432 166.848 41.56C167.029 41.688 167.275 41.752 167.584 41.752C168 41.752 168.395 41.7413 168.768 41.72C169.141 41.688 169.493 41.6507 169.824 41.608C170.155 41.5653 170.453 41.5173 170.72 41.464L170.592 43.56C170.379 43.6027 170.075 43.64 169.68 43.672C169.296 43.7147 168.896 43.7467 168.48 43.768C168.075 43.7893 167.733 43.8 167.456 43.8C166.699 43.8 166.101 43.6987 165.664 43.496C165.237 43.304 164.923 42.9467 164.72 42.424C164.677 42.264 164.624 42.0827 164.56 41.88C164.496 41.6773 164.437 41.48 164.384 41.288C164.341 41.0853 164.299 40.92 164.256 40.792C164.171 40.504 164.048 40.3067 163.888 40.2C163.728 40.0827 163.568 40.024 163.408 40.024C163.237 40.024 163.067 40.0827 162.896 40.2C162.725 40.3067 162.544 40.4613 162.352 40.664C162.245 40.7707 162.112 40.9093 161.952 41.08C161.803 41.2507 161.627 41.4427 161.424 41.656C161.232 41.8693 161.029 42.0987 160.816 42.344C160.613 42.5893 160.4 42.8453 160.176 43.112C159.952 43.3787 159.728 43.656 159.504 43.944L157.616 42.616C157.755 42.488 157.92 42.344 158.112 42.184C158.304 42.0133 158.507 41.8267 158.72 41.624C158.859 41.4853 159.056 41.288 159.312 41.032C159.568 40.7653 159.861 40.4667 160.192 40.136C160.533 39.8053 160.885 39.4533 161.248 39.08C161.621 38.696 161.995 38.3173 162.368 37.944C162.741 37.5707 163.088 37.2187 163.408 36.888C163.739 36.5467 164.027 36.248 164.272 35.992C164.048 36.0027 163.797 36.0187 163.52 36.04C163.243 36.0507 162.955 36.0667 162.656 36.088C162.357 36.0987 162.064 36.12 161.776 36.152C161.488 36.1733 161.221 36.1947 160.976 36.216C160.731 36.2373 160.512 36.2587 160.32 36.28C160.043 36.3013 159.787 36.3333 159.552 36.376C159.317 36.408 159.115 36.4347 158.944 36.456L158.752 34.248C158.933 34.2587 159.163 34.2747 159.44 34.296C159.717 34.3067 160 34.3067 160.288 34.296C160.437 34.296 160.683 34.2907 161.024 34.28C161.376 34.2693 161.781 34.2533 162.24 34.232C162.699 34.2107 163.163 34.1893 163.632 34.168C164.112 34.136 164.56 34.104 164.976 34.072C165.403 34.0293 165.744 33.992 166 33.96C166.149 33.9387 166.315 33.912 166.496 33.88C166.688 33.848 166.827 33.816 166.912 33.784L168.08 35.112Z" fill="#192A3E"/>
</g>
<defs>
<filter id="filter0_d_31_4045" x="0" y="0" width="254" height="81" filterUnits="userSpaceOnUse" color-interpolation-filters="sRGB">
<feFlood flood-opacity="0" result="BackgroundImageFix"/>
<feColorMatrix in="SourceAlpha" type="matrix" values="0 0 0 0 0 0 0 0 0 0 0 0 0 0 0 0 0 0 127 0" result="hardAlpha"/>
<feOffset dy="4"/>
<feGaussianBlur stdDeviation="7.5"/>
<feComposite in2="hardAlpha" operator="out"/>
<feColorMatrix type="matrix" values="0 0 0 0 0 0 0 0 0 0 0 0 0 0 0 0 0 0 0.16 0"/>
<feBlend mode="normal" in2="BackgroundImageFix" result="effect1_dropShadow_31_4045"/>
<feBlend mode="normal" in="SourceGraphic" in2="effect1_dropShadow_31_4045" result="shape"/>
</filter>
<linearGradient id="paint0_linear_31_4045" x1="130.5" y1="11" x2="130.5" y2="60.5" gradientUnits="userSpaceOnUse">
<stop stop-color="white"/>
<stop offset="1" stop-color="#C7E7E7"/>
</linearGradient>
<clipPath id="clip0_31_4045">
<rect width="30" height="30" fill="white" transform="translate(82 21.5)"/>
</clipPath>
</defs>
</svg>
