<svg width="30" height="31" viewBox="0 0 30 31" fill="none" xmlns="http://www.w3.org/2000/svg">
<g clip-path="url(#clip0_31_4010)">
<circle cx="15" cy="15.5" r="10" fill="white"/>
<path d="M19.375 14.25C20.4105 14.25 21.25 13.4105 21.25 12.375C21.25 11.3395 20.4105 10.5 19.375 10.5C18.3395 10.5 17.5 11.3395 17.5 12.375C17.5 13.4105 18.3395 14.25 19.375 14.25Z" fill="#0F74E8"/>
<path d="M10.625 14.25C11.6605 14.25 12.5 13.4105 12.5 12.375C12.5 11.3395 11.6605 10.5 10.625 10.5C9.58947 10.5 8.75 11.3395 8.75 12.375C8.75 13.4105 9.58947 14.25 10.625 14.25Z" fill="#0F74E8"/>
<path d="M14.9875 3C8.0875 3 2.5 8.6 2.5 15.5C2.5 22.4 8.0875 28 14.9875 28C21.9 28 27.5 22.4 27.5 15.5C27.5 8.6 21.9 3 14.9875 3ZM15 25.5C9.475 25.5 5 21.025 5 15.5C5 9.975 9.475 5.5 15 5.5C20.525 5.5 25 9.975 25 15.5C25 21.025 20.525 25.5 15 25.5ZM20.5125 17.8625C20.075 17.5875 19.4875 17.725 19.225 18.1625C18.3 19.625 16.725 20.5 15 20.5C13.275 20.5 11.7 19.625 10.775 18.15C10.5 17.7125 9.925 17.575 9.4875 17.85C9.05 18.125 8.9125 18.7 9.1875 19.1375C10.4625 21.175 12.625 22.375 15 22.375C17.375 22.375 19.5375 21.1625 20.8125 19.15C21.0875 18.7125 20.95 18.1375 20.5125 17.8625Z" fill="#0F74E8"/>
</g>
<defs>
<clipPath id="clip0_31_4010">
<rect width="30" height="30" fill="white" transform="translate(0 0.5)"/>
</clipPath>
</defs>
</svg>
