<svg width="254" height="81" viewBox="0 0 254 81" fill="none" xmlns="http://www.w3.org/2000/svg">
<g filter="url(#filter0_d_31_4043)">
<rect x="15" y="11" width="224" height="51" rx="16" fill="url(#paint0_linear_31_4043)" shape-rendering="crispEdges"/>
<rect x="15.5" y="11.5" width="223" height="50" rx="15.5" stroke="white" shape-rendering="crispEdges"/>
<g clip-path="url(#clip0_31_4043)">
<circle cx="106" cy="36.5" r="10" fill="white"/>
<path d="M110.375 35.25C111.411 35.25 112.25 34.4105 112.25 33.375C112.25 32.3395 111.411 31.5 110.375 31.5C109.339 31.5 108.5 32.3395 108.5 33.375C108.5 34.4105 109.339 35.25 110.375 35.25Z" fill="#0F74E8"/>
<path d="M101.625 35.25C102.661 35.25 103.5 34.4105 103.5 33.375C103.5 32.3395 102.661 31.5 101.625 31.5C100.589 31.5 99.75 32.3395 99.75 33.375C99.75 34.4105 100.589 35.25 101.625 35.25Z" fill="#0F74E8"/>
<path d="M105.987 24C99.0875 24 93.5 29.6 93.5 36.5C93.5 43.4 99.0875 49 105.987 49C112.9 49 118.5 43.4 118.5 36.5C118.5 29.6 112.9 24 105.987 24ZM106 46.5C100.475 46.5 96 42.025 96 36.5C96 30.975 100.475 26.5 106 26.5C111.525 26.5 116 30.975 116 36.5C116 42.025 111.525 46.5 106 46.5ZM111.513 38.8625C111.075 38.5875 110.487 38.725 110.225 39.1625C109.3 40.625 107.725 41.5 106 41.5C104.275 41.5 102.7 40.625 101.775 39.15C101.5 38.7125 100.925 38.575 100.488 38.85C100.05 39.125 99.9125 39.7 100.188 40.1375C101.462 42.175 103.625 43.375 106 43.375C108.375 43.375 110.538 42.1625 111.812 40.15C112.087 39.7125 111.95 39.1375 111.513 38.8625Z" fill="#0F74E8"/>
</g>
<path d="M137.256 33.176C137.715 33.2187 138.173 33.256 138.632 33.288C139.101 33.3093 139.576 33.32 140.056 33.32C141.037 33.32 142.013 33.2773 142.984 33.192C143.955 33.1067 144.851 32.9733 145.672 32.792V34.792C144.84 34.9093 143.939 35.0053 142.968 35.08C141.997 35.144 141.027 35.176 140.056 35.176C139.587 35.176 139.117 35.1707 138.648 35.16C138.189 35.1387 137.725 35.112 137.256 35.08V33.176ZM143.336 30.472C143.315 30.6213 143.293 30.7867 143.272 30.968C143.261 31.1493 143.251 31.3307 143.24 31.512C143.229 31.6827 143.219 31.912 143.208 32.2C143.197 32.488 143.192 32.8133 143.192 33.176C143.192 33.528 143.192 33.9013 143.192 34.296C143.192 35.0213 143.203 35.704 143.224 36.344C143.245 36.9733 143.272 37.56 143.304 38.104C143.336 38.6373 143.363 39.128 143.384 39.576C143.416 40.024 143.432 40.44 143.432 40.824C143.432 41.24 143.373 41.624 143.256 41.976C143.149 42.328 142.973 42.6373 142.728 42.904C142.483 43.1707 142.157 43.3733 141.752 43.512C141.357 43.6613 140.872 43.736 140.296 43.736C139.187 43.736 138.312 43.512 137.672 43.064C137.032 42.616 136.712 41.9707 136.712 41.128C136.712 40.584 136.856 40.1093 137.144 39.704C137.432 39.288 137.843 38.968 138.376 38.744C138.909 38.5093 139.539 38.392 140.264 38.392C141.021 38.392 141.709 38.472 142.328 38.632C142.947 38.792 143.512 39.0053 144.024 39.272C144.536 39.5387 144.989 39.832 145.384 40.152C145.789 40.4613 146.152 40.76 146.472 41.048L145.368 42.728C144.76 42.152 144.168 41.656 143.592 41.24C143.016 40.824 142.44 40.504 141.864 40.28C141.299 40.056 140.712 39.944 140.104 39.944C139.656 39.944 139.288 40.0293 139 40.2C138.723 40.3707 138.584 40.6107 138.584 40.92C138.584 41.24 138.728 41.4747 139.016 41.624C139.304 41.7733 139.656 41.848 140.072 41.848C140.403 41.848 140.664 41.7947 140.856 41.688C141.048 41.5707 141.181 41.4053 141.256 41.192C141.341 40.968 141.384 40.7013 141.384 40.392C141.384 40.1147 141.373 39.752 141.352 39.304C141.331 38.856 141.304 38.3547 141.272 37.8C141.251 37.2453 141.229 36.6693 141.208 36.072C141.187 35.464 141.176 34.872 141.176 34.296C141.176 33.688 141.171 33.1387 141.16 32.648C141.16 32.1467 141.16 31.7733 141.16 31.528C141.16 31.4107 141.149 31.2453 141.128 31.032C141.107 30.8187 141.08 30.632 141.048 30.472H143.336ZM135.528 30.648C135.496 30.7547 135.448 30.904 135.384 31.096C135.331 31.288 135.283 31.4747 135.24 31.656C135.208 31.8373 135.181 31.976 135.16 32.072C135.107 32.296 135.048 32.6 134.984 32.984C134.92 33.3573 134.851 33.784 134.776 34.264C134.712 34.7333 134.648 35.2187 134.584 35.72C134.52 36.2107 134.472 36.68 134.44 37.128C134.408 37.5653 134.392 37.944 134.392 38.264C134.392 38.424 134.392 38.6 134.392 38.792C134.403 38.9733 134.424 39.144 134.456 39.304C134.531 39.112 134.605 38.9253 134.68 38.744C134.765 38.5627 134.851 38.3813 134.936 38.2C135.021 38.0187 135.101 37.8373 135.176 37.656L136.152 38.456C136.003 38.8933 135.848 39.352 135.688 39.832C135.539 40.312 135.4 40.7653 135.272 41.192C135.155 41.6187 135.064 41.976 135 42.264C134.979 42.3707 134.957 42.4987 134.936 42.648C134.925 42.7973 134.92 42.92 134.92 43.016C134.92 43.1013 134.92 43.2027 134.92 43.32C134.931 43.448 134.941 43.5653 134.952 43.672L133.144 43.816C132.973 43.2507 132.824 42.5307 132.696 41.656C132.568 40.7707 132.504 39.784 132.504 38.696C132.504 38.0987 132.531 37.4747 132.584 36.824C132.637 36.1627 132.696 35.528 132.76 34.92C132.835 34.312 132.909 33.7573 132.984 33.256C133.059 32.744 133.117 32.3333 133.16 32.024C133.192 31.8 133.224 31.5493 133.256 31.272C133.288 30.984 133.309 30.712 133.32 30.456L135.528 30.648ZM151.16 31.56C151.117 31.752 151.08 31.9707 151.048 32.216C151.027 32.4613 151.005 32.7013 150.984 32.936C150.973 33.1707 150.968 33.3627 150.968 33.512C150.957 33.864 150.952 34.2267 150.952 34.6C150.963 34.9733 150.973 35.3573 150.984 35.752C151.005 36.136 151.032 36.52 151.064 36.904C151.139 37.672 151.245 38.3493 151.384 38.936C151.523 39.5227 151.704 39.9813 151.928 40.312C152.152 40.632 152.435 40.792 152.776 40.792C152.957 40.792 153.133 40.6907 153.304 40.488C153.485 40.2853 153.645 40.024 153.784 39.704C153.933 39.3733 154.061 39.0267 154.168 38.664C154.285 38.3013 154.387 37.96 154.472 37.64L156.072 39.592C155.72 40.52 155.368 41.2613 155.016 41.816C154.675 42.36 154.317 42.7547 153.944 43C153.571 43.2347 153.165 43.352 152.728 43.352C152.152 43.352 151.603 43.16 151.08 42.776C150.568 42.392 150.131 41.7733 149.768 40.92C149.405 40.056 149.149 38.9093 149 37.48C148.947 36.9893 148.904 36.472 148.872 35.928C148.851 35.384 148.835 34.8667 148.824 34.376C148.824 33.8853 148.824 33.48 148.824 33.16C148.824 32.936 148.813 32.6693 148.792 32.36C148.771 32.0507 148.739 31.7733 148.696 31.528L151.16 31.56ZM159.16 31.928C159.459 32.2907 159.747 32.7333 160.024 33.256C160.301 33.7787 160.557 34.3387 160.792 34.936C161.027 35.5333 161.235 36.1467 161.416 36.776C161.597 37.3947 161.741 38.0027 161.848 38.6C161.965 39.1867 162.04 39.7253 162.072 40.216L159.96 41.032C159.907 40.3813 159.811 39.672 159.672 38.904C159.533 38.136 159.347 37.3627 159.112 36.584C158.877 35.8053 158.595 35.0693 158.264 34.376C157.944 33.6827 157.565 33.0853 157.128 32.584L159.16 31.928Z" fill="#192A3E"/>
</g>
<defs>
<filter id="filter0_d_31_4043" x="0" y="0" width="254" height="81" filterUnits="userSpaceOnUse" color-interpolation-filters="sRGB">
<feFlood flood-opacity="0" result="BackgroundImageFix"/>
<feColorMatrix in="SourceAlpha" type="matrix" values="0 0 0 0 0 0 0 0 0 0 0 0 0 0 0 0 0 0 127 0" result="hardAlpha"/>
<feOffset dy="4"/>
<feGaussianBlur stdDeviation="7.5"/>
<feComposite in2="hardAlpha" operator="out"/>
<feColorMatrix type="matrix" values="0 0 0 0 0 0 0 0 0 0 0 0 0 0 0 0 0 0 0.16 0"/>
<feBlend mode="normal" in2="BackgroundImageFix" result="effect1_dropShadow_31_4043"/>
<feBlend mode="normal" in="SourceGraphic" in2="effect1_dropShadow_31_4043" result="shape"/>
</filter>
<linearGradient id="paint0_linear_31_4043" x1="130.5" y1="11" x2="130.5" y2="60.5" gradientUnits="userSpaceOnUse">
<stop stop-color="white"/>
<stop offset="1" stop-color="#C7E7E7"/>
</linearGradient>
<clipPath id="clip0_31_4043">
<rect width="30" height="30" fill="white" transform="translate(91 21.5)"/>
</clipPath>
</defs>
</svg>
